<svg width="168" height="56" viewBox="0 0 168 56" fill="none" xmlns="http://www.w3.org/2000/svg">
<path d="M154.002 2.4088e-06H13.6074C13.0956 2.4088e-06 12.59 2.40901e-06 12.0796 0.00280241C11.6523 0.00560241 11.2285 0.0137364 10.7971 0.0205824C9.86003 0.0316449 8.92512 0.114349 8.00054 0.267976C7.07727 0.424948 6.18291 0.720884 5.34773 1.14578C4.51356 1.57426 3.75136 2.13104 3.08878 2.7959C2.42272 3.45889 1.86751 4.22522 1.44449 5.06543C1.0203 5.90395 0.726174 6.80252 0.572255 7.73007C0.416873 8.65646 0.333261 9.59353 0.322168 10.5329C0.309217 10.9621 0.30785 11.3928 0.301025 11.8221V44.182C0.30785 44.6167 0.309217 45.0379 0.322168 45.4727C0.333264 46.412 0.416877 47.349 0.572255 48.2754C0.725749 49.2035 1.0199 50.1025 1.44449 50.9414C1.86731 51.7789 2.42261 52.5421 3.08878 53.2014C3.74885 53.8692 4.51154 54.4264 5.34773 54.8516C6.1829 55.2776 7.07716 55.5753 8.00054 55.7347C8.92528 55.8871 9.86009 55.9698 10.7971 55.9822C11.2285 55.9917 11.6523 55.9972 12.0796 55.9972C12.59 56 13.0956 56 13.6074 56H154.002C154.504 56 155.013 56 155.515 55.9972C155.94 55.9972 156.376 55.9917 156.802 55.9822C157.737 55.9705 158.67 55.8878 159.593 55.7347C160.519 55.5742 161.417 55.2766 162.256 54.8516C163.091 54.4261 163.853 53.869 164.513 53.2014C165.177 52.5395 165.734 51.7768 166.162 50.9414C166.583 50.1019 166.874 49.2029 167.026 48.2754C167.181 47.3489 167.268 46.4121 167.285 45.4727C167.29 45.0379 167.29 44.6167 167.29 44.182C167.301 43.6734 167.301 43.1676 167.301 42.6507V13.3506C167.301 12.8379 167.301 12.3293 167.29 11.8221C167.29 11.3928 167.29 10.9621 167.285 10.5328C167.268 9.59339 167.181 8.65653 167.026 7.73002C166.874 6.803 166.583 5.90451 166.162 5.06537C165.3 3.38128 163.934 2.01044 162.256 1.14565C161.417 0.721797 160.519 0.425939 159.593 0.26785C158.67 0.113546 157.737 0.0308133 156.802 0.0203864C156.376 0.0135544 155.94 0.00535041 155.515 0.00262041C155.013 -0.000179591 154.504 2.4088e-06 154.002 2.4088e-06Z" fill="#A6A6A6"/>
<path d="M12.0865 54.7754C11.6613 54.7754 11.2463 54.77 10.8245 54.7605C9.95052 54.749 9.07863 54.6727 8.21593 54.5321C7.41151 54.3931 6.63224 54.1346 5.90383 53.7651C5.1821 53.3986 4.52382 52.918 3.95421 52.3418C3.37636 51.7724 2.89528 51.112 2.53002 50.3867C2.16073 49.6567 1.90517 48.8743 1.77222 48.0666C1.62865 47.1988 1.55097 46.3213 1.53986 45.4416C1.53101 45.1464 1.51943 44.1633 1.51943 44.1633V11.8225C1.51943 11.8225 1.53176 10.8545 1.53993 10.5701C1.55057 9.6919 1.6278 8.81574 1.77094 7.94925C1.90413 7.13938 2.15989 6.35468 2.52938 5.62231C2.89329 4.89755 3.37171 4.23663 3.94608 3.66518C4.5198 3.0883 5.18019 2.60527 5.90315 2.23372C6.62988 1.86536 7.40768 1.60865 8.21048 1.47221C9.07601 1.3302 9.95092 1.25342 10.8279 1.24252L12.0871 1.22543H155.508L156.783 1.24321C157.652 1.25357 158.518 1.32966 159.376 1.47083C160.187 1.60899 160.973 1.86749 161.708 2.23782C163.156 2.98661 164.335 4.17126 165.078 5.62573C165.442 6.35304 165.694 7.13134 165.825 7.93421C165.97 8.80782 166.051 9.69086 166.068 10.5763C166.072 10.9728 166.072 11.3987 166.072 11.8225C166.083 12.3475 166.083 12.8472 166.083 13.351V42.6511C166.083 43.1598 166.083 43.6561 166.072 44.1564C166.072 44.6117 166.072 45.0288 166.066 45.458C166.05 46.3277 165.97 47.1949 165.828 48.0529C165.698 48.8664 165.443 49.6549 165.074 50.3909C164.706 51.1083 164.228 51.763 163.657 52.3309C163.087 52.9102 162.427 53.3936 161.704 53.7624C160.971 54.1348 160.186 54.3943 159.376 54.5321C158.513 54.6735 157.641 54.7498 156.767 54.7605C156.359 54.77 155.931 54.7754 155.515 54.7754L154.002 54.7782L12.0865 54.7754Z" fill="#000"/>
<path d="M34.8675 28.415C34.8825 27.2465 35.1919 26.1008 35.7669 25.0844C36.342 24.0681 37.1639 23.2142 38.1563 22.6021C37.5258 21.6989 36.6942 20.9556 35.7273 20.4312C34.7604 19.9069 33.6849 19.6159 32.5863 19.5814C30.2428 19.3346 27.9709 20.9882 26.7767 20.9882C25.5594 20.9882 23.7207 19.6059 21.7408 19.6468C20.4601 19.6883 19.2119 20.0619 18.118 20.7311C17.024 21.4004 16.1215 22.3426 15.4985 23.4658C12.7994 28.1536 14.8127 35.043 17.3981 38.8323C18.6917 40.6878 20.2035 42.7604 22.1816 42.6869C24.1174 42.6064 24.8403 41.4486 27.1769 41.4486C29.4919 41.4486 30.1702 42.6869 32.1884 42.6402C34.2656 42.6064 35.5743 40.7764 36.8225 38.9034C37.7519 37.5813 38.4671 36.1201 38.9415 34.5739C37.7348 34.0619 36.705 33.2048 35.9805 32.1096C35.256 31.0144 34.8689 29.7295 34.8675 28.415Z" fill="#EAEAEB"/>
<path d="M31.0554 17.0895C32.1879 15.7256 32.7459 13.9726 32.6108 12.2027C30.8805 12.385 29.2822 13.2145 28.1344 14.5261C27.5732 15.1668 27.1433 15.9122 26.8694 16.7197C26.5956 17.5272 26.483 18.3809 26.5382 19.232C27.4037 19.241 28.2599 19.0528 29.0423 18.6817C29.8248 18.3106 30.5131 17.7662 31.0554 17.0895Z" fill="#EAEAEB"/>
<path d="M59.337 37.9906H52.7312L51.1448 42.6896H48.3468L54.6038 25.3044H57.5107L63.7677 42.6896H60.922L59.337 37.9906ZM53.4153 35.8223H58.6515L56.0703 28.1961H55.998L53.4153 35.8223Z" fill="#EAEAEB"/>
<path d="M77.2804 36.3537C77.2804 40.2926 75.1789 42.8232 72.0075 42.8232C71.2041 42.8654 70.4051 42.6797 69.7021 42.2875C68.999 41.8954 68.4202 41.3125 68.032 40.6056H67.972V46.8838H65.3785V30.0154H67.8889V32.1236H67.9366C68.3426 31.4202 68.9312 30.8403 69.6396 30.4457C70.3481 30.0511 71.1499 29.8566 71.9598 29.8828C75.1665 29.8828 77.2804 32.4258 77.2804 36.3537ZM74.6146 36.3537C74.6146 33.7875 73.2926 32.1004 71.2756 32.1004C69.294 32.1004 67.9611 33.823 67.9611 36.3537C67.9611 38.9076 69.294 40.618 71.2756 40.618C73.2926 40.618 74.6146 38.9431 74.6146 36.3537Z" fill="#EAEAEB"/>
<path d="M91.1872 36.3537C91.1872 40.2926 89.0857 42.8232 85.9143 42.8232C85.1109 42.8654 84.312 42.6797 83.6089 42.2875C82.9058 41.8953 82.327 41.3125 81.9388 40.6056H81.8788V46.8837H79.2853V30.0154H81.7957V32.1236H81.8434C82.2494 31.4201 82.838 30.8403 83.5464 30.4457C84.2548 30.0511 85.0567 29.8566 85.8666 29.8828C89.0734 29.8828 91.1872 32.4257 91.1872 36.3537ZM88.5215 36.3537C88.5215 33.7875 87.1995 32.1004 85.1824 32.1004C83.2008 32.1004 81.8679 33.823 81.8679 36.3537C81.8679 38.9076 83.2008 40.6179 85.1824 40.6179C87.1995 40.6179 88.5215 38.9431 88.5215 36.3537Z" fill="#EAEAEB"/>
<path d="M100.379 37.8472C100.571 39.5712 102.24 40.7032 104.522 40.7032C106.708 40.7032 108.28 39.5712 108.28 38.0167C108.28 36.6672 107.332 35.8593 105.086 35.3055L102.84 34.7628C99.6576 33.9917 98.1802 32.4987 98.1802 30.076C98.1802 27.0764 100.786 25.0161 104.486 25.0161C108.148 25.0161 110.659 27.0764 110.743 30.076H108.125C107.968 28.3411 106.539 27.2938 104.449 27.2938C102.36 27.2938 100.93 28.3534 100.93 29.8956C100.93 31.1247 101.844 31.8479 104.077 32.4016L105.987 32.8719C109.542 33.7154 111.02 35.1483 111.02 37.6912C111.02 40.9438 108.437 42.9809 104.329 42.9809C100.486 42.9809 97.8912 40.9916 97.7236 37.8471L100.379 37.8472Z" fill="#EAEAEB"/>
<path d="M116.617 27.0167V30.0163H119.02V32.0767H116.617V39.0643C116.617 40.1499 117.098 40.6558 118.154 40.6558C118.439 40.6508 118.724 40.6307 119.007 40.5956V42.6436C118.532 42.7326 118.05 42.7729 117.567 42.7639C115.009 42.7639 114.011 41.8 114.011 39.3418V32.0767H112.174V30.0163H114.011V27.0167H116.617Z" fill="#EAEAEB"/>
<path d="M120.411 36.3546C120.411 32.3665 122.752 29.8604 126.404 29.8604C130.067 29.8604 132.397 32.3664 132.397 36.3546C132.397 40.3536 130.079 42.8487 126.404 42.8487C122.729 42.8487 120.411 40.3536 120.411 36.3546ZM129.755 36.3546C129.755 33.6188 128.505 32.0042 126.404 32.0042C124.302 32.0042 123.054 33.6311 123.054 36.3546C123.054 39.1012 124.302 40.7036 126.404 40.7036C128.505 40.7036 129.755 39.1012 129.755 36.3546Z" fill="#EAEAEB"/>
<path d="M134.536 30.0153H137.01V32.1727H137.07C137.237 31.4989 137.63 30.9034 138.184 30.4864C138.737 30.0693 139.417 29.8562 140.109 29.8827C140.408 29.8816 140.706 29.9142 140.997 29.9797V32.4133C140.62 32.2977 140.226 32.2445 139.832 32.2561C139.455 32.2408 139.08 32.3074 138.731 32.4514C138.382 32.5955 138.069 32.8135 137.812 33.0906C137.555 33.3676 137.361 33.6971 137.244 34.0564C137.126 34.4158 137.087 34.7965 137.13 35.1723V42.6905H134.536L134.536 30.0153Z" fill="#EAEAEB"/>
<path d="M152.955 38.9686C152.606 41.2696 150.372 42.8487 147.514 42.8487C143.839 42.8487 141.557 40.3782 141.557 36.4147C141.557 32.4389 143.851 29.8604 147.405 29.8604C150.901 29.8604 153.099 32.2694 153.099 36.1126V37.004H144.175V37.1612C144.134 37.6277 144.192 38.0976 144.346 38.5398C144.5 38.982 144.746 39.3863 145.067 39.7258C145.389 40.0654 145.778 40.3325 146.211 40.5093C146.643 40.6861 147.108 40.7687 147.574 40.7514C148.187 40.809 148.802 40.6666 149.328 40.3454C149.854 40.0242 150.262 39.5413 150.492 38.9686L152.955 38.9686ZM144.188 35.1856H150.505C150.528 34.7662 150.464 34.3464 150.318 33.9528C150.172 33.5591 149.947 33.1999 149.656 32.8978C149.365 32.5958 149.014 32.3573 148.627 32.1974C148.24 32.0375 147.824 31.9596 147.405 31.9686C146.983 31.9661 146.564 32.0475 146.174 32.2081C145.783 32.3688 145.427 32.6055 145.128 32.9046C144.829 33.2036 144.592 33.5592 144.431 33.9507C144.269 34.3422 144.187 34.7619 144.188 35.1856Z" fill="#EAEAEB"/>
<path d="M53.0901 12.2233C53.6339 12.1841 54.1795 12.2665 54.6876 12.4645C55.1958 12.6625 55.6538 12.9712 56.0286 13.3683C56.4034 13.7654 56.6858 14.2409 56.8552 14.7607C57.0246 15.2805 57.0769 15.8315 57.0084 16.374C57.0084 19.0428 55.5706 20.5768 53.0901 20.5768H50.0823V12.2233H53.0901ZM51.3756 19.3955H52.9457C53.3342 19.4188 53.723 19.3548 54.0838 19.2084C54.4446 19.0619 54.7684 18.8366 55.0314 18.5488C55.2945 18.261 55.4902 17.918 55.6045 17.5447C55.7187 17.1715 55.7486 16.7773 55.6918 16.3911C55.7445 16.0063 55.7116 15.6146 55.5956 15.2441C55.4796 14.8736 55.2833 14.5333 55.0209 14.2478C54.7584 13.9623 54.4363 13.7386 54.0775 13.5927C53.7187 13.4467 53.3322 13.3822 52.9457 13.4038H51.3756V19.3955Z" fill="#EAEAEB"/>
<path d="M58.4693 17.4212C58.4298 17.007 58.4771 16.589 58.608 16.1941C58.739 15.7992 58.9508 15.4361 59.2298 15.1281C59.5088 14.8201 59.849 14.5741 60.2283 14.4057C60.6077 14.2373 61.018 14.1503 61.4329 14.1503C61.8477 14.1503 62.258 14.2373 62.6374 14.4057C63.0168 14.5741 63.3569 14.8201 63.6359 15.1281C63.915 15.4361 64.1268 15.7992 64.2577 16.1941C64.3887 16.589 64.4359 17.007 64.3964 17.4212C64.4367 17.836 64.39 18.2545 64.2594 18.6501C64.1288 19.0456 63.9171 19.4093 63.638 19.7179C63.3589 20.0265 63.0185 20.2731 62.6388 20.4418C62.259 20.6106 61.8482 20.6978 61.4329 20.6978C61.0175 20.6978 60.6068 20.6106 60.227 20.4418C59.8472 20.2731 59.5068 20.0265 59.2277 19.7179C58.9486 19.4093 58.737 19.0456 58.6064 18.6501C58.4757 18.2545 58.4291 17.836 58.4693 17.4212ZM63.1208 17.4212C63.1208 16.0547 62.5088 15.2556 61.4349 15.2556C60.3569 15.2556 59.7505 16.0547 59.7505 17.4213C59.7505 18.7987 60.3569 19.5917 61.4349 19.5917C62.5089 19.5917 63.1208 18.7932 63.1208 17.4212Z" fill="#EAEAEB"/>
<path d="M72.2751 20.5766H70.9886L69.6898 15.9336H69.5917L68.2983 20.5766H67.024L65.2918 14.2725H66.5497L67.6755 19.0829H67.7681L69.0601 14.2725H70.2499L71.5419 19.0829H71.64L72.7603 14.2725H74.0005L72.2751 20.5766Z" fill="#EAEAEB"/>
<path d="M75.4574 14.2722H76.6513V15.2737H76.744C76.9012 14.914 77.1663 14.6125 77.5025 14.4111C77.8386 14.2098 78.229 14.1187 78.6193 14.1505C78.925 14.1275 79.232 14.1737 79.5176 14.2858C79.8031 14.398 80.0598 14.5731 80.2687 14.7983C80.4776 15.0235 80.6333 15.2929 80.7243 15.5867C80.8153 15.8804 80.8393 16.1909 80.7944 16.4952V20.5762H79.5542V16.8077C79.5542 15.7946 79.1153 15.2908 78.1981 15.2908C77.9905 15.2811 77.7833 15.3165 77.5906 15.3947C77.3979 15.4728 77.2244 15.5919 77.0819 15.7436C76.9394 15.8953 76.8312 16.0762 76.7649 16.2738C76.6986 16.4714 76.6756 16.681 76.6976 16.8883V20.5763H75.4574L75.4574 14.2722Z" fill="#EAEAEB"/>
<path d="M82.7706 11.8112H84.0108V20.5763H82.7706V11.8112Z" fill="#EAEAEB"/>
<path d="M85.7348 17.4214C85.6953 17.007 85.7426 16.589 85.8736 16.1941C86.0045 15.7992 86.2164 15.4361 86.4954 15.1281C86.7745 14.8202 87.1146 14.5741 87.494 14.4057C87.8735 14.2373 88.2838 14.1503 88.6987 14.1503C89.1135 14.1503 89.5239 14.2373 89.9033 14.4057C90.2827 14.5741 90.6228 14.8202 90.9019 15.1281C91.181 15.4361 91.3928 15.7992 91.5238 16.1941C91.6548 16.589 91.702 17.007 91.6625 17.4214C91.7028 17.8361 91.656 18.2547 91.5254 18.6502C91.3947 19.0457 91.183 19.4095 90.9039 19.718C90.6248 20.0266 90.2844 20.2732 89.9046 20.4419C89.5248 20.6107 89.114 20.6978 88.6987 20.6978C88.2833 20.6978 87.8725 20.6107 87.4927 20.4419C87.113 20.2732 86.7726 20.0266 86.4934 19.718C86.2143 19.4095 86.0026 19.0457 85.8719 18.6502C85.7413 18.2547 85.6946 17.8361 85.7348 17.4214ZM90.3862 17.4214C90.3862 16.0549 89.7743 15.2557 88.7004 15.2557C87.6223 15.2557 87.0159 16.0549 87.0159 17.4214C87.0159 18.7988 87.6224 19.5918 88.7004 19.5918C89.7743 19.5918 90.3862 18.7933 90.3862 17.4214Z" fill="#EAEAEB"/>
<path d="M92.9682 18.7933C92.9682 17.6585 93.8104 17.0043 95.3055 16.9113L97.0077 16.8129V16.2688C97.0077 15.6029 96.5689 15.227 95.7212 15.227C95.0288 15.227 94.5491 15.482 94.4114 15.9277H93.2108C93.3375 14.8448 94.3528 14.1503 95.7784 14.1503C97.3539 14.1503 98.2425 14.9371 98.2425 16.2688V20.5761H97.0486V19.6902H96.9505C96.7513 20.0079 96.4716 20.267 96.14 20.4409C95.8084 20.6148 95.4367 20.6973 95.0629 20.68C94.7991 20.7075 94.5324 20.6793 94.2802 20.5971C94.0279 20.5149 93.7956 20.3806 93.5983 20.2028C93.4009 20.0251 93.2429 19.8078 93.1343 19.565C93.0258 19.3223 92.9692 19.0593 92.9682 18.7933ZM97.0077 18.2546V17.7276L95.4731 17.826C94.6077 17.8841 94.2152 18.1794 94.2152 18.7352C94.2152 19.3025 94.7058 19.6327 95.3805 19.6327C95.5782 19.6528 95.7778 19.6328 95.9676 19.5738C96.1574 19.5149 96.3335 19.4183 96.4853 19.2897C96.6371 19.1611 96.7616 19.0032 96.8514 18.8254C96.9411 18.6476 96.9943 18.4535 97.0077 18.2546Z" fill="#EAEAEB"/>
<path d="M99.8724 17.4215C99.8724 15.4295 100.893 14.1676 102.481 14.1676C102.874 14.1495 103.263 14.2438 103.605 14.4397C103.946 14.6355 104.225 14.9248 104.408 15.2736H104.501V11.8112H105.741V20.5763H104.553V19.5803H104.454C104.257 19.9268 103.968 20.2124 103.621 20.4063C103.273 20.6002 102.879 20.6949 102.481 20.6802C100.882 20.6803 99.8724 19.4183 99.8724 17.4215ZM101.154 17.4215C101.154 18.7586 101.782 19.5632 102.833 19.5632C103.878 19.5632 104.524 18.747 104.524 17.427C104.524 16.1131 103.871 15.2853 102.833 15.2853C101.789 15.2853 101.154 16.0953 101.154 17.4215Z" fill="#EAEAEB"/>
<path d="M110.872 17.4212C110.833 17.007 110.88 16.589 111.011 16.1941C111.142 15.7992 111.354 15.4361 111.633 15.1281C111.912 14.8201 112.252 14.5741 112.631 14.4057C113.011 14.2373 113.421 14.1503 113.836 14.1503C114.251 14.1503 114.661 14.2373 115.04 14.4057C115.42 14.5741 115.76 14.8201 116.039 15.1281C116.318 15.4361 116.53 15.7992 116.661 16.1941C116.792 16.589 116.839 17.007 116.799 17.4212C116.84 17.836 116.793 18.2545 116.662 18.6501C116.532 19.0456 116.32 19.4093 116.041 19.7179C115.762 20.0265 115.422 20.2731 115.042 20.4418C114.662 20.6106 114.251 20.6978 113.836 20.6978C113.421 20.6978 113.01 20.6106 112.63 20.4418C112.25 20.2731 111.91 20.0265 111.631 19.7179C111.352 19.4093 111.14 19.0456 111.009 18.6501C110.879 18.2545 110.832 17.836 110.872 17.4212ZM115.524 17.4212C115.524 16.0547 114.912 15.2556 113.838 15.2556C112.76 15.2556 112.153 16.0547 112.153 17.4213C112.153 18.7987 112.76 19.5917 113.838 19.5917C114.912 19.5917 115.524 18.7932 115.524 17.4212Z" fill="#EAEAEB"/>
<path d="M118.463 14.2722H119.657V15.2737H119.75C119.907 14.914 120.172 14.6125 120.508 14.4111C120.845 14.2098 121.235 14.1187 121.625 14.1505C121.931 14.1275 122.238 14.1737 122.523 14.2858C122.809 14.398 123.066 14.5731 123.275 14.7983C123.484 15.0235 123.639 15.2929 123.73 15.5867C123.821 15.8804 123.845 16.1909 123.8 16.4952V20.5762H122.56V16.8077C122.56 15.7946 122.121 15.2908 121.204 15.2908C120.996 15.2811 120.789 15.3165 120.597 15.3947C120.404 15.4728 120.23 15.5919 120.088 15.7436C119.945 15.8953 119.837 16.0762 119.771 16.2738C119.704 16.4714 119.682 16.681 119.704 16.8883V20.5763H118.463V14.2722Z" fill="#EAEAEB"/>
<path d="M130.808 12.7024V14.3007H132.17V15.3486H130.808V18.5902C130.808 19.2506 131.079 19.5397 131.697 19.5397C131.855 19.5392 132.013 19.5296 132.17 19.511V20.5473C131.947 20.5873 131.721 20.6086 131.495 20.6109C130.116 20.6109 129.567 20.1242 129.567 18.9088V15.3486H128.569V14.3006H129.567V12.7024H130.808Z" fill="#EAEAEB"/>
<path d="M133.864 11.8112H135.093V15.2853H135.191C135.356 14.9222 135.629 14.619 135.971 14.4169C136.314 14.2148 136.711 14.1237 137.107 14.156C137.412 14.1394 137.716 14.1903 137.998 14.3052C138.28 14.42 138.534 14.596 138.741 14.8205C138.947 15.0449 139.102 15.3124 139.194 15.6038C139.286 15.8952 139.312 16.2033 139.272 16.5062V20.5763H138.03V16.8131C138.03 15.8062 137.563 15.2962 136.686 15.2962C136.473 15.2787 136.259 15.3081 136.058 15.3823C135.858 15.4566 135.676 15.574 135.525 15.7262C135.374 15.8784 135.258 16.0619 135.186 16.2637C135.113 16.4654 135.085 16.6807 135.104 16.8944V20.5763H133.864L133.864 11.8112Z" fill="#EAEAEB"/>
<path d="M146.503 18.874C146.334 19.4502 145.969 19.9486 145.472 20.282C144.974 20.6154 144.375 20.7626 143.78 20.6979C143.366 20.7088 142.954 20.6293 142.574 20.4647C142.194 20.3002 141.854 20.0546 141.578 19.745C141.301 19.4354 141.096 19.0693 140.975 18.6719C140.854 18.2745 140.82 17.8555 140.877 17.444C140.822 17.0311 140.856 16.6112 140.976 16.2127C141.097 15.8141 141.302 15.4463 141.577 15.134C141.851 14.8217 142.19 14.5722 142.569 14.4025C142.948 14.2328 143.359 14.1469 143.774 14.1504C145.523 14.1504 146.578 15.3488 146.578 17.3284V17.7625H142.14V17.8323C142.121 18.0636 142.15 18.2965 142.225 18.5159C142.301 18.7354 142.421 18.9366 142.579 19.1066C142.737 19.2766 142.928 19.4118 143.14 19.5033C143.353 19.5949 143.583 19.6408 143.814 19.6383C144.111 19.674 144.411 19.6204 144.677 19.4843C144.944 19.3482 145.163 19.1358 145.309 18.874L146.503 18.874ZM142.14 16.8424H145.314C145.33 16.6308 145.301 16.4183 145.23 16.2185C145.159 16.0187 145.047 15.836 144.901 15.6822C144.756 15.5284 144.58 15.4069 144.384 15.3255C144.189 15.244 143.979 15.2044 143.768 15.2093C143.553 15.2066 143.34 15.247 143.142 15.3281C142.943 15.4093 142.762 15.5295 142.611 15.6817C142.459 15.8339 142.339 16.015 142.259 16.2143C142.178 16.4137 142.138 16.6272 142.14 16.8424Z" fill="#EAEAEB"/>
</svg>
