<svg width="20" height="20" viewBox="0 0 20 20" fill="none" xmlns="http://www.w3.org/2000/svg">
<path d="M14.9 5.00037H5.1C4.54305 5.00037 4.0089 5.19791 3.61508 5.54954C3.22125 5.90117 3 6.37809 3 6.87537V13.1254C3 13.6226 3.22125 14.0996 3.61508 14.4512C4.0089 14.8028 4.54305 15.0004 5.1 15.0004H14.9C15.457 15.0004 15.9911 14.8028 16.3849 14.4512C16.7788 14.0996 17 13.6226 17 13.1254V6.87537C17 6.37809 16.7788 5.90117 16.3849 5.54954C15.9911 5.19791 15.457 5.00037 14.9 5.00037ZM14.9 6.25037L10.35 9.04412C10.2436 9.09897 10.1229 9.12785 10 9.12785C9.87712 9.12785 9.75641 9.09897 9.65 9.04412L5.1 6.25037H14.9Z" fill="#191C1D"/>
</svg>
