<svg width="22" height="23" viewBox="0 0 22 23" fill="none" xmlns="http://www.w3.org/2000/svg">
<g filter="url(#filter0_d_5081_6228)">
<path d="M5.5 13.2789C6.23436 12.5956 7.22169 12.2128 8.25 12.2128C9.27831 12.2128 10.2656 12.5956 11 13.2789C11.7344 13.9622 12.7217 14.345 13.75 14.345C14.7038 14.345 15.6224 14.0157 16.3365 13.4227C16.4433 13.3339 16.5 13.2 16.5 13.0612V7.71428C16.5 7.27745 15.9491 7.0214 15.5571 7.21416C15.0036 7.48637 14.3846 7.63213 13.75 7.63213C12.7217 7.63213 11.7344 7.24938 11 6.56606C10.2656 5.88274 9.27831 5.5 8.25 5.5C7.29618 5.5 6.37764 5.8293 5.66351 6.42231C5.55668 6.51102 5.5 6.64494 5.5 6.78379V13.2789ZM5.5 13.2789V18.5" stroke="#EAEAEB" stroke-width="1.25" shape-rendering="crispEdges"/>
</g>
<defs>
<filter id="filter0_d_5081_6228" x="0.875" y="0.875" width="20.25" height="21.625" filterUnits="userSpaceOnUse" color-interpolation-filters="sRGB">
<feFlood flood-opacity="0" result="BackgroundImageFix"/>
<feColorMatrix in="SourceAlpha" type="matrix" values="0 0 0 0 0 0 0 0 0 0 0 0 0 0 0 0 0 0 127 0" result="hardAlpha"/>
<feOffset/>
<feGaussianBlur stdDeviation="2"/>
<feComposite in2="hardAlpha" operator="out"/>
<feColorMatrix type="matrix" values="0 0 0 0 0 0 0 0 0 0 0 0 0 0 0 0 0 0 0.15 0"/>
<feBlend mode="normal" in2="BackgroundImageFix" result="effect1_dropShadow_5081_6228"/>
<feBlend mode="normal" in="SourceGraphic" in2="effect1_dropShadow_5081_6228" result="shape"/>
</filter>
</defs>
</svg>
